<svg xmlns="http://www.w3.org/2000/svg" xmlns:xlink="http://www.w3.org/1999/xlink" viewBox="0 0 252.57 119.33"><defs><style>.cls-1{fill:url(#linear-gradient);}.cls-2{fill:url(#linear-gradient-2);}.cls-3{fill:url(#linear-gradient-3);}.cls-4{fill:url(#linear-gradient-4);}.cls-5{fill:url(#linear-gradient-5);}.cls-6{fill:url(#linear-gradient-6);}.cls-7{fill:url(#linear-gradient-7);}.cls-8{fill:url(#linear-gradient-8);}.cls-9{fill:url(#linear-gradient-9);}.cls-10{fill:url(#linear-gradient-10);}.cls-11{fill:url(#linear-gradient-11);}.cls-12{fill:url(#linear-gradient-12);}.cls-13{fill:url(#linear-gradient-13);}.cls-14{fill:url(#linear-gradient-14);}.cls-15{fill:url(#linear-gradient-15);}.cls-16{fill:url(#linear-gradient-16);}</style><linearGradient id="linear-gradient" x1="374.45" y1="-14.52" x2="374.45" y2="-5.55" gradientTransform="matrix(-0.85, -0.34, -0.31, 0.94, 396.05, 234.6)" gradientUnits="userSpaceOnUse"><stop offset="0" stop-color="#32338d"/><stop offset="1" stop-color="#4674b7"/></linearGradient><linearGradient id="linear-gradient-2" x1="396.09" y1="-40.65" x2="396.09" y2="-31.69" xlink:href="#linear-gradient"/><linearGradient id="linear-gradient-3" x1="386.59" y1="-27.63" x2="386.59" y2="-18.67" xlink:href="#linear-gradient"/><linearGradient id="linear-gradient-4" x1="343.02" y1="-84.93" x2="343.02" y2="-78.17" gradientTransform="matrix(-0.88, -0.35, -0.27, 0.82, 426.65, 207.82)" xlink:href="#linear-gradient"/><linearGradient id="linear-gradient-5" x1="396.95" y1="-187.61" x2="396.95" y2="-181.2" gradientTransform="matrix(-0.96, -0.39, -0.34, 1.04, 454.88, 371.53)" xlink:href="#linear-gradient"/><linearGradient id="linear-gradient-6" x1="352.5" y1="-91.99" x2="352.5" y2="-83.62" gradientTransform="matrix(-0.85, -0.34, -0.31, 0.94, 396.11, 233.76)" xlink:href="#linear-gradient"/><linearGradient id="linear-gradient-7" x1="464.31" y1="22.83" x2="464.31" y2="112.57" gradientTransform="matrix(-0.9, 0.07, 0.06, 1, 512.92, -51.52)" xlink:href="#linear-gradient"/><linearGradient id="linear-gradient-8" x1="419.54" y1="-54.62" x2="434.99" y2="-59.98" gradientTransform="matrix(-0.85, -0.34, -0.31, 0.94, 370.68, 210.45)" gradientUnits="userSpaceOnUse"><stop offset="0" stop-color="#65bef0"/><stop offset="1" stop-color="#a5d6f5"/></linearGradient><linearGradient id="linear-gradient-9" x1="419.01" y1="-54.23" x2="435.13" y2="-59.84" xlink:href="#linear-gradient-8"/><linearGradient id="linear-gradient-10" x1="481.29" y1="18.22" x2="485.57" y2="30.05" gradientTransform="matrix(-0.9, 0, 0, 1, 480.04, 0)" xlink:href="#linear-gradient-8"/><linearGradient id="linear-gradient-11" x1="389.05" y1="51.58" x2="393.33" y2="63.41" gradientTransform="matrix(-0.9, 0, 0, 1, 480.04, 0)" xlink:href="#linear-gradient-8"/><linearGradient id="linear-gradient-12" x1="184.72" y1="-113.91" x2="243.82" y2="-113.91" xlink:href="#linear-gradient-8"/><linearGradient id="linear-gradient-13" x1="318.48" y1="51.56" x2="371.08" y2="34.85" gradientTransform="matrix(-0.9, 0, 0, 1, 480.04, 0)" xlink:href="#linear-gradient"/><linearGradient id="linear-gradient-14" x1="350.15" y1="-6.29" x2="350.88" y2="-48.72" xlink:href="#linear-gradient-8"/><linearGradient id="linear-gradient-15" x1="333.75" y1="20.37" x2="449.99" y2="20.37" gradientTransform="matrix(-0.9, 0, 0, 1, 480.04, 0)" xlink:href="#linear-gradient-8"/><linearGradient id="linear-gradient-16" x1="219.39" y1="-80.24" x2="227.17" y2="-98.89" xlink:href="#linear-gradient-8"/></defs><g id="レイヤー_2" data-name="レイヤー 2"><g id="illust"><path class="cls-1" d="M73.21,88.51c.92.21,1.88.46,2.86.76,1.45.44,3,1,4.5,1.59C88.9,94.22,95,99,94.15,101.55s-8.26,1.87-16.59-1.5c-1.54-.62-3-1.29-4.36-2-.93-.48-1.82-1-2.64-1.46a6.93,6.93,0,0,1,0-4.52A5.61,5.61,0,0,1,73.21,88.51Z"/><path class="cls-2" d="M63,56.55c.92.21,1.88.46,2.86.76,1.45.44,3,1,4.5,1.59,8.33,3.37,14.41,8.16,13.58,10.69s-8.26,1.87-16.59-1.5c-1.54-.62-3-1.29-4.37-2-.93-.48-1.81-1-2.63-1.46a6.93,6.93,0,0,1,0-4.52A5.61,5.61,0,0,1,63,56.55Z"/><path class="cls-3" d="M67,72c.92.2,1.88.46,2.87.76,1.44.43,3,1,4.49,1.58,8.33,3.37,14.41,8.16,13.58,10.7s-8.26,1.86-16.59-1.51c-1.54-.62-3-1.29-4.36-2-.94-.48-1.82-1-2.64-1.46a6.9,6.9,0,0,1,0-4.51A5.59,5.59,0,0,1,67,72Z"/><path class="cls-4" d="M141.09,13.17c.71.17,1.45.39,2.22.63,1.12.36,2.3.78,3.5,1.26,6.5,2.63,11.33,6.12,10.78,7.8s-6.27.9-12.77-1.73c-1.2-.48-2.35-1-3.41-1.52-.73-.37-1.42-.74-2.07-1.1a4.16,4.16,0,0,1-.18-3.05A3.31,3.31,0,0,1,141.09,13.17Z"/><path class="cls-5" d="M130.71,18.56c.73.16,1.51.37,2.31.61,1.17.36,2.39.79,3.64,1.29,6.74,2.73,11.67,6.57,11,8.59S141,30.5,134.26,27.77c-1.25-.5-2.43-1-3.53-1.61-.75-.38-1.47-.78-2.13-1.18a5.4,5.4,0,0,1,0-3.59A4.37,4.37,0,0,1,130.71,18.56Z"/><path class="cls-6" d="M116.35,22.85c.85.2,1.74.43,2.67.71,1.35.41,2.75.91,4.19,1.48,7.78,3.15,13.45,7.61,12.68,10s-7.71,1.73-15.48-1.41c-1.44-.58-2.81-1.2-4.07-1.85-.87-.45-1.69-.91-2.46-1.37a6.43,6.43,0,0,1,0-4.2A5.26,5.26,0,0,1,116.35,22.85Z"/><path class="cls-7" d="M17.45,8.62a21.84,21.84,0,0,1,9.64-3.84,11.55,11.55,0,0,1,5.49.73l143.31,59c9.15,3.77,32.9,14.67,19.66,18.89-11,3.51-36.21,7.8-68.86-5.64L18.53,33.22C9.28,29.42-1,21.07.08,15.75S17.45,8.62,17.45,8.62Z"/><path class="cls-8" d="M25.09,12.39,20.56,9.12a20.87,20.87,0,0,1,6.85-2.25l2.19,3.59Z"/><polygon class="cls-9" points="34.66 14.9 31.9 16.59 25.88 12.95 30.29 11.13 34.66 14.9"/><path class="cls-10" d="M40.51,28.05a1.09,1.09,0,0,0,.57,1.36l3.27,1.32a.93.93,0,0,0,1.23-.63L48.89,20a1.1,1.1,0,0,0-.57-1.36L45,17.32a.94.94,0,0,0-1.23.64Z"/><path class="cls-11" d="M123.51,61.6a1.1,1.1,0,0,0,.58,1.36l3.27,1.32a.93.93,0,0,0,1.23-.63l3.3-10.1a1.08,1.08,0,0,0-.57-1.36l-3.27-1.32a.93.93,0,0,0-1.23.63Z"/><path class="cls-12" d="M245.45,28.11a9.26,9.26,0,0,1,7.12,2.55l-31.32,8-25.18-8.42Z"/><polygon class="cls-13" points="160.85 54.76 200.03 31.55 221.25 38.65 192.51 74.12 133.11 50.12 160.85 54.76"/><path class="cls-14" d="M70.14,67.25l15.17,46.24,7.55,5.84,11.79-8.49s.08-1.84-2.92-1.64l-6.16.34-.68-23.39,8.85-25S89.91,50.84,79.67,44.76c-15.44-9.17-24-11-24-11Z"/><path class="cls-15" d="M135.22,14.42,74.78,23.09l43.66,17.64,30.49-19.38,26-13.52L179.46.88A1.54,1.54,0,0,0,177,.39l-6.28,4.35Z"/><path class="cls-16" d="M211.25,58.7c2,3.57,6.44,2.5,6.44,2.5l3.56-22.56-25.18-8.42Z"/></g></g></svg>