<svg xmlns="http://www.w3.org/2000/svg" xmlns:xlink="http://www.w3.org/1999/xlink" viewBox="0 0 280.44 119.33"><defs><style>.cls-1{fill:url(#linear-gradient);}.cls-2{fill:url(#linear-gradient-2);}.cls-3{fill:url(#linear-gradient-3);}.cls-4{fill:url(#linear-gradient-4);}.cls-5{fill:url(#linear-gradient-5);}.cls-6{fill:url(#linear-gradient-6);}.cls-7{fill:url(#linear-gradient-7);}.cls-8{fill:url(#linear-gradient-8);}.cls-9{fill:url(#linear-gradient-9);}.cls-10{fill:url(#linear-gradient-10);}.cls-11{fill:url(#linear-gradient-11);}.cls-12{fill:url(#linear-gradient-12);}.cls-13{fill:url(#linear-gradient-13);}.cls-14{fill:url(#linear-gradient-14);}.cls-15{fill:url(#linear-gradient-15);}.cls-16{fill:url(#linear-gradient-16);}</style><linearGradient id="linear-gradient" x1="121.88" y1="-14.52" x2="121.88" y2="-5.55" gradientTransform="matrix(0.94, -0.34, 0.34, 0.94, 78.03, 148.22)" gradientUnits="userSpaceOnUse"><stop offset="0" stop-color="#32338d"/><stop offset="1" stop-color="#4674b7"/></linearGradient><linearGradient id="linear-gradient-2" x1="143.52" y1="-40.65" x2="143.52" y2="-31.69" xlink:href="#linear-gradient"/><linearGradient id="linear-gradient-3" x1="134.01" y1="-27.63" x2="134.01" y2="-18.67" xlink:href="#linear-gradient"/><linearGradient id="linear-gradient-4" x1="90.44" y1="-84.93" x2="90.44" y2="-78.17" gradientTransform="matrix(0.97, -0.35, 0.3, 0.82, 52.26, 118.46)" xlink:href="#linear-gradient"/><linearGradient id="linear-gradient-5" x1="144.38" y1="-187.61" x2="144.38" y2="-181.2" gradientTransform="matrix(1.06, -0.39, 0.38, 1.04, 43.8, 273.83)" xlink:href="#linear-gradient"/><linearGradient id="linear-gradient-6" x1="99.93" y1="-91.99" x2="99.93" y2="-83.62" gradientTransform="matrix(0.94, -0.34, 0.34, 0.94, 77.96, 147.38)" xlink:href="#linear-gradient"/><linearGradient id="linear-gradient-7" x1="211.74" y1="22.83" x2="211.74" y2="112.57" gradientTransform="matrix(1, 0.07, -0.07, 1, -37.04, -35)" xlink:href="#linear-gradient"/><linearGradient id="linear-gradient-8" x1="166.97" y1="-54.62" x2="182.42" y2="-59.98" gradientTransform="matrix(0.94, -0.34, 0.34, 0.94, 106.2, 124.07)" gradientUnits="userSpaceOnUse"><stop offset="0" stop-color="#65bef0"/><stop offset="1" stop-color="#a5d6f5"/></linearGradient><linearGradient id="linear-gradient-9" x1="166.43" y1="-54.23" x2="182.56" y2="-59.84" xlink:href="#linear-gradient-8"/><linearGradient id="linear-gradient-10" x1="228.72" y1="18.22" x2="232.99" y2="30.05" gradientTransform="matrix(1, 0, 0, 1, 0, 0)" xlink:href="#linear-gradient-8"/><linearGradient id="linear-gradient-11" x1="136.48" y1="51.58" x2="140.76" y2="63.41" gradientTransform="matrix(1, 0, 0, 1, 0, 0)" xlink:href="#linear-gradient-8"/><linearGradient id="linear-gradient-12" x1="-67.86" y1="-113.91" x2="-8.75" y2="-113.91" xlink:href="#linear-gradient-8"/><linearGradient id="linear-gradient-13" x1="65.9" y1="51.56" x2="118.51" y2="34.85" gradientTransform="matrix(1, 0, 0, 1, 0, 0)" xlink:href="#linear-gradient"/><linearGradient id="linear-gradient-14" x1="97.57" y1="-6.29" x2="98.31" y2="-48.72" xlink:href="#linear-gradient-8"/><linearGradient id="linear-gradient-15" x1="81.18" y1="20.37" x2="197.41" y2="20.37" gradientTransform="matrix(1, 0, 0, 1, 0, 0)" xlink:href="#linear-gradient-8"/><linearGradient id="linear-gradient-16" x1="-33.18" y1="-80.24" x2="-25.4" y2="-98.89" xlink:href="#linear-gradient-8"/></defs><g id="レイヤー_2" data-name="レイヤー 2"><g id="illust"><path class="cls-1" d="M199.15,88.51c-1,.21-2.08.46-3.18.76-1.6.44-3.28,1-5,1.59-9.26,3.36-16,8.15-15.09,10.69s9.18,1.87,18.43-1.5c1.71-.62,3.34-1.29,4.84-2,1-.48,2-1,2.92-1.46a6.19,6.19,0,0,0,0-4.52A5.73,5.73,0,0,0,199.15,88.51Z"/><path class="cls-2" d="M210.55,56.55c-1,.21-2.09.46-3.18.76-1.61.44-3.28,1-5,1.59-9.25,3.37-16,8.16-15.08,10.69s9.17,1.87,18.42-1.5c1.71-.62,3.34-1.29,4.84-2,1-.48,2-1,2.93-1.46a6.29,6.29,0,0,0,0-4.52A5.73,5.73,0,0,0,210.55,56.55Z"/><path class="cls-3" d="M206.07,72c-1,.2-2.08.46-3.18.76-1.6.43-3.28,1-5,1.58-9.25,3.37-16,8.16-15.08,10.7s9.17,1.86,18.42-1.51c1.72-.62,3.34-1.29,4.85-2,1-.48,2-1,2.92-1.46a6.21,6.21,0,0,0,0-4.51A5.7,5.7,0,0,0,206.07,72Z"/><path class="cls-4" d="M123.78,13.17c-.78.17-1.61.39-2.46.63-1.25.36-2.55.78-3.88,1.26-7.23,2.63-12.58,6.12-12,7.8s7,.9,14.18-1.73c1.34-.48,2.61-1,3.79-1.52.81-.37,1.58-.74,2.3-1.1a3.8,3.8,0,0,0,.2-3.05A3.43,3.43,0,0,0,123.78,13.17Z"/><path class="cls-5" d="M135.31,18.56c-.81.16-1.68.37-2.57.61-1.29.36-2.65.79-4,1.29-7.49,2.73-13,6.57-12.23,8.59s7.4,1.45,14.89-1.28c1.38-.5,2.7-1,3.92-1.61.84-.38,1.63-.78,2.37-1.18a4.94,4.94,0,0,0,.05-3.59A4.49,4.49,0,0,0,135.31,18.56Z"/><path class="cls-6" d="M151.26,22.85c-.95.2-1.94.43-3,.71-1.49.41-3.06.91-4.65,1.48-8.64,3.15-14.94,7.61-14.08,10s8.56,1.73,17.19-1.41q2.4-.87,4.52-1.85c1-.45,1.88-.91,2.73-1.37a5.8,5.8,0,0,0,0-4.2A5.36,5.36,0,0,0,151.26,22.85Z"/><path class="cls-7" d="M261.06,8.62a25.6,25.6,0,0,0-10.69-3.84,14.14,14.14,0,0,0-6.1.73l-159.12,59C75,68.25,48.61,79.15,63.32,83.37c12.2,3.51,40.2,7.8,76.45-5.64l120.1-44.51c10.27-3.8,21.69-12.15,20.49-17.47S261.06,8.62,261.06,8.62Z"/><path class="cls-8" d="M252.59,12.39l5-3.27A24.87,24.87,0,0,0,250,6.87l-2.43,3.59Z"/><polygon class="cls-9" points="241.95 14.9 245.03 16.59 251.71 12.95 246.81 11.13 241.95 14.9"/><path class="cls-10" d="M235.47,28.05a1.07,1.07,0,0,1-.63,1.36l-3.64,1.32a1.06,1.06,0,0,1-1.37-.63L226.16,20a1.06,1.06,0,0,1,.64-1.36l3.63-1.33a1.06,1.06,0,0,1,1.36.64Z"/><path class="cls-11" d="M143.3,61.6a1.06,1.06,0,0,1-.63,1.36L139,64.28a1.06,1.06,0,0,1-1.36-.63L134,53.55a1.05,1.05,0,0,1,.63-1.36l3.64-1.32a1.06,1.06,0,0,1,1.36.63Z"/><path class="cls-12" d="M7.9,28.11A10.86,10.86,0,0,0,0,30.66l34.78,8,28-8.42Z"/><polygon class="cls-13" points="101.84 54.76 58.34 31.55 34.78 38.65 66.69 74.12 132.64 50.12 101.84 54.76"/><path class="cls-14" d="M202.56,67.25l-16.84,46.24-8.38,5.84-13.1-8.49s-.09-1.84,3.25-1.64l6.84.34.75-23.39-9.82-25S180.61,50.84,192,44.76c17.15-9.17,26.65-11,26.65-11Z"/><path class="cls-15" d="M130.3,14.42l67.11,8.67L148.93,40.73,115.08,21.35,86.24,7.83,81.18.88A1.79,1.79,0,0,1,83.87.39l7,4.35Z"/><path class="cls-16" d="M45.89,58.7c-2.19,3.57-7.16,2.5-7.16,2.5L34.78,38.64l28-8.42Z"/></g></g></svg>